<svg id="visual" viewBox="0 0 900 600" width="900" height="600" xmlns="http://www.w3.org/2000/svg" xmlns:xlink="http://www.w3.org/1999/xlink" version="1.1"><rect x="0" y="0" width="900" height="600" fill="#2D2926"></rect><path d="M552 600L552.7 585.7C553.3 571.3 554.7 542.7 564.3 514.2C574 485.7 592 457.3 587 428.8C582 400.3 554 371.7 544.5 343C535 314.3 544 285.7 555 257C566 228.3 579 199.7 591.3 171.2C603.7 142.7 615.3 114.3 606.2 85.8C597 57.3 567 28.7 552 14.3L537 0L900 0L900 14.3C900 28.7 900 57.3 900 85.8C900 114.3 900 142.7 900 171.2C900 199.7 900 228.3 900 257C900 285.7 900 314.3 900 343C900 371.7 900 400.3 900 428.8C900 457.3 900 485.7 900 514.2C900 542.7 900 571.3 900 585.7L900 600Z" fill="#fa7268"></path><path d="M634 600L648.2 585.7C662.3 571.3 690.7 542.7 693.2 514.2C695.7 485.7 672.3 457.3 655.2 428.8C638 400.3 627 371.7 622 343C617 314.3 618 285.7 616.3 257C614.7 228.3 610.3 199.7 618.8 171.2C627.3 142.7 648.7 114.3 659.3 85.8C670 57.3 670 28.7 670 14.3L670 0L900 0L900 14.3C900 28.7 900 57.3 900 85.8C900 114.3 900 142.7 900 171.2C900 199.7 900 228.3 900 257C900 285.7 900 314.3 900 343C900 371.7 900 400.3 900 428.8C900 457.3 900 485.7 900 514.2C900 542.7 900 571.3 900 585.7L900 600Z" fill="#e6736c"></path><path d="M671 600L678.2 585.7C685.3 571.3 699.7 542.7 699 514.2C698.3 485.7 682.7 457.3 690.8 428.8C699 400.3 731 371.7 746.7 343C762.3 314.3 761.7 285.7 746 257C730.3 228.3 699.7 199.7 697.5 171.2C695.3 142.7 721.7 114.3 733 85.8C744.3 57.3 740.7 28.7 738.8 14.3L737 0L900 0L900 14.3C900 28.7 900 57.3 900 85.8C900 114.3 900 142.7 900 171.2C900 199.7 900 228.3 900 257C900 285.7 900 314.3 900 343C900 371.7 900 400.3 900 428.8C900 457.3 900 485.7 900 514.2C900 542.7 900 571.3 900 585.7L900 600Z" fill="#d1736f"></path><path d="M812 600L808.7 585.7C805.3 571.3 798.7 542.7 787.8 514.2C777 485.7 762 457.3 757.7 428.8C753.3 400.3 759.7 371.7 757.2 343C754.7 314.3 743.3 285.7 748 257C752.7 228.3 773.3 199.7 778 171.2C782.7 142.7 771.3 114.3 772 85.8C772.7 57.3 785.3 28.7 791.7 14.3L798 0L900 0L900 14.3C900 28.7 900 57.3 900 85.8C900 114.3 900 142.7 900 171.2C900 199.7 900 228.3 900 257C900 285.7 900 314.3 900 343C900 371.7 900 400.3 900 428.8C900 457.3 900 485.7 900 514.2C900 542.7 900 571.3 900 585.7L900 600Z" fill="#bb7370"></path><path d="M805 600L803 585.7C801 571.3 797 542.7 800.5 514.2C804 485.7 815 457.3 826.3 428.8C837.7 400.3 849.3 371.7 849 343C848.7 314.3 836.3 285.7 836 257C835.7 228.3 847.3 199.7 849.5 171.2C851.7 142.7 844.3 114.3 842.3 85.8C840.3 57.3 843.7 28.7 845.3 14.3L847 0L900 0L900 14.3C900 28.7 900 57.3 900 85.8C900 114.3 900 142.7 900 171.2C900 199.7 900 228.3 900 257C900 285.7 900 314.3 900 343C900 371.7 900 400.3 900 428.8C900 457.3 900 485.7 900 514.2C900 542.7 900 571.3 900 585.7L900 600Z" fill="#a57271"></path></svg>